<?xml version="1.0" encoding="utf-8"?>
<!-- Generator: Adobe Illustrator 22.0.1, SVG Export Plug-In . SVG Version: 6.00 Build 0)  -->
<svg version="1.1" id="Слой_2" xmlns="http://www.w3.org/2000/svg" xmlns:xlink="http://www.w3.org/1999/xlink" x="0px" y="0px"
	 viewBox="0 0 160 120" style="enable-background:new 0 0 160 120;" xml:space="preserve">
<style type="text/css">
	.st0{fill:#1D1D1B;stroke:#1D1D1B;stroke-width:1.5;stroke-linecap:round;stroke-linejoin:round;stroke-miterlimit:10;}
	.st1{fill:#43A7F5;stroke:#43A7F5;stroke-width:1.5;stroke-linecap:round;stroke-linejoin:round;stroke-miterlimit:10;}
	.st2{fill:none;stroke:#1D1D1B;stroke-width:1.5;stroke-linecap:round;stroke-linejoin:round;stroke-miterlimit:10;}
</style>
<path class="st0" d="M120.4,109.9c3,0.3,4.8-1.2,6.5-3.5c1-1.3,1.8-2.7,2.6-4.1l-4.4-2c-2.1,1-3.9,2.5-5.4,4.1"/>
<path class="st0" d="M61,94c-3.7-0.6-7.8-0.4-11.4,1c-4.4,1.8-7.4,5.6-11.3,8.3c2.3-1.6,5.4-2.5,7.9-3.6c4.5-1.9,10.2-2.1,14.7,0.1
	L61,94z"/>
<circle class="st1" cx="85.6" cy="41.3" r="12.2"/>
<path class="st2" d="M61,73.3v33.2c0,0,47.1,0,47.1,0l0.1-41.6c0,0-26.6,0-39.9,0L61,73.3z"/>
<rect x="25.1" y="73.9" transform="matrix(0.6618 -0.7497 0.7497 0.6618 -40.527 65.3872)" class="st2" width="54.3" height="7.4"/>
<path class="st1" d="M85.3,106.5c1.9-3.4,3.2-6.3,5.5-9.5c1.6-2.2,3.8-5,6.3-6.2c5-2.4,9.5,3.7,11.6,7.3c1.7,3,3.2,6.1,5.3,8.9
	c1.1,1.4,2.6,2.3,4.4,2.7c1.2,0.3,2.5,0.3,3.7,0c0.6-0.1,1.2-0.3,1.7-0.6c0.3-0.2,1.1-0.9,1.5-0.9c-1,0-2-0.7-2.8-1.3
	c-1-0.7-1.9-1.5-2.7-2.3c-1-1-1.8-2-2.6-3.1c-1.1-1.4-2.2-2.8-3.3-4.2c-2.4-3.1-5-6.3-8.5-8c-2.6-1.3-5.6-1.8-8.4-1.3
	c-3.8,0.6-7.3,3.3-9.9,6c-3.5,3.7-6.1,8.1-8.6,12.5L85.3,106.5z"/>
<path class="st2" d="M95,88.4c1.6-0.5,3.9-0.2,5.4,0.6c2.2,1.1,3.7,2.9,5,4.9c1.4,2.1,2.7,4.2,4,6.3c2.4,4,4.5,9.2,9.8,10
	c2.7,0.4,4.8-0.8,6.7-2.7"/>
<path class="st1" d="M132.7,105.7c-0.6-1.7-1.9-3.2-3.4-4.1c-1-0.6-1.8-0.7-3-0.9c-0.3,0-2.3,0.3-2.6,0.5c0.6-0.4,2-1.3,2.7-1.5
	c0.9-0.3,1.9-0.5,2.8-0.5c5.7,0.1,9.2,7.6,10,12.4h-5.7C133.5,109.5,133.3,107.5,132.7,105.7z"/>
<path class="st1" d="M16.2,96.7c3.4,6.3,10.9,8.8,17.7,8.2c2.9-0.3,7.4-1.8,9.7-3.6l0,0c-2.2,1.5-3.1,2-6,2.2
	c-2.7,0.2-5.6-0.4-7.9-1.8c-3.2-1.9-5.3-5.2-7.3-8.2L16.2,96.7z"/>
<line class="st2" x1="87.8" y1="12.5" x2="87.8" y2="8.1"/>
<line class="st2" x1="87.8" y1="21.7" x2="87.8" y2="17.1"/>
<line class="st2" x1="90.1" y1="14.9" x2="94.6" y2="14.9"/>
<line class="st2" x1="81" y1="14.9" x2="85.6" y2="14.9"/>
<path class="st2" d="M113.9,28c0.1,0,0.1,0,0.1,0c-1.2-0.4-2-0.7-2.6-1.9c-0.5-1-0.7-1.8-0.8-2.9c-0.4,2.2-2.1,4.1-4.3,4.6
	c1.8,1,2.9,3,2.8,5c0.4-1.2,0.8-2.1,1.7-2.9C111.6,29.2,112.8,28.2,113.9,28z"/>
<path class="st2" d="M67.5,27.4c-0.2,0.4-0.6,0.7-1.2,0.8c-1.4,0.2-2.3-1.7-1-2.6C66.8,24.6,68,26.3,67.5,27.4z"/>
<path class="st2" d="M103.1,55.9c0.1,0.4,0,0.9-0.3,1.4c-0.9,1.1-2.9,0.3-2.5-1.2C100.8,54.3,102.8,54.7,103.1,55.9z"/>
<path class="st0" d="M55.9,45.7c-0.1,0.2-0.2,0.3-0.4,0.4c-0.9,0.4-1.7-0.7-0.9-1.3C55.5,44.1,56.3,45,55.9,45.7z"/>
<path class="st2" d="M123.3,101.4c1.4-0.7,3.2-0.4,4.6,0.3c0.5,0.3,1,0.6,1.4,1"/>
<path class="st2" d="M127.3,101.5c4.1,1.8,5.2,6.3,5.8,10.3"/>
<path class="st2" d="M50.3,98.6c-4.2,0.8-7.5,3.8-11.8,4.6c-3,0.6-6.2,0-8.8-1.6c-3.2-1.9-5.3-5.2-7.3-8.2"/>
<polyline class="st0" points="61,73.3 69,64.9 70.9,64.9 61,75.3 "/>
</svg>
