<svg width="34" height="34" viewBox="0 0 34 34" fill="none" xmlns="http://www.w3.org/2000/svg">
<path fill-rule="evenodd" clip-rule="evenodd" d="M17 1C25.837 1 33 8.164 33 17C33 25.837 25.837 33 17 33C8.163 33 1 25.837 1 17C1 8.164 8.163 1 17 1Z" stroke="#4A4A4A"/>
<path fill-rule="evenodd" clip-rule="evenodd" d="M12.7725 14.0328H14.5845V12.2718C14.5845 11.4958 14.6045 10.2978 15.1685 9.55679C15.7625 8.77079 16.5785 8.23779 17.9805 8.23779C20.2655 8.23779 21.2285 8.56379 21.2285 8.56379L20.7755 11.2478C20.7755 11.2478 20.0205 11.0298 19.3155 11.0298C18.6115 11.0298 17.9805 11.2808 17.9805 11.9858V14.0328H20.8705L20.6685 16.6538H17.9805V25.7618H14.5845V16.6538H12.7725V14.0338V14.0328Z" stroke="#4A4A4A"/>
</svg>
