<svg width="15" height="13" viewBox="0 0 15 13" fill="none" xmlns="http://www.w3.org/2000/svg">
<path d="M6.83082 11.4138L6.5133 11.2616C5.12584 10.5965 3.64364 9.47761 2.6215 8.09169C1.59788 6.70377 0.985215 4.9695 1.53365 3.14748C1.88334 1.9699 3.0191 1.12219 4.31359 1.31865L6.83082 11.4138ZM6.83082 11.4138L7.10284 11.2584M6.83082 11.4138L7.10284 11.2584M7.10284 11.2584L7.3823 11.3143L7.63258 11.0897C8.09975 10.6704 8.5942 10.2742 9.10511 9.86977C9.16272 9.82417 9.22059 9.77843 9.27865 9.73254C9.73072 9.37523 10.1946 9.00857 10.6421 8.62504L10.6424 8.62476C11.1674 8.17416 11.7893 7.62934 12.3147 7.00332C12.84 6.37746 13.3054 5.62849 13.4717 4.75667L13.4723 4.75392C13.6404 3.8523 13.4448 2.88954 12.9473 2.14523C12.4406 1.38716 11.6023 0.837546 10.5292 0.864291C9.4608 0.886468 8.67322 1.4378 8.0854 2.08087C7.62273 2.58703 7.24003 3.20106 6.92003 3.72596C6.51029 2.69446 5.70802 1.53024 4.31363 1.31866L7.10284 11.2584Z" stroke="#141414" stroke-width="1.34261"/>
</svg>
