<svg width="32" height="32" viewBox="0 0 32 32" fill="none" xmlns="http://www.w3.org/2000/svg">
<path d="M20.8486 11.1513C21.3842 11.1513 21.8183 10.7172 21.8183 10.1816C21.8183 9.64606 21.3842 9.21191 20.8486 9.21191C20.3131 9.21191 19.8789 9.64606 19.8789 10.1816C19.8789 10.7172 20.3131 11.1513 20.8486 11.1513Z" fill="#4A4A4A"/>
<path d="M16 32C7.16344 32 0 24.8366 0 16C0 7.16344 7.16344 0 16 0C24.8366 0 32 7.16344 32 16C32 24.8366 24.8366 32 16 32ZM16 31.0303C24.301 31.0303 31.0303 24.301 31.0303 16C31.0303 7.69899 24.301 0.969697 16 0.969697C7.69899 0.969697 0.969697 7.69899 0.969697 16C0.969697 24.301 7.69899 31.0303 16 31.0303Z" fill="#4A4A4A"/>
<path d="M12.1214 7.75778C9.71145 7.75778 7.75778 9.71145 7.75778 12.1214V19.879C7.75778 22.289 9.71145 24.2426 12.1214 24.2426H19.879C22.289 24.2426 24.2426 22.289 24.2426 19.879V12.1214C24.2426 9.71145 22.289 7.75778 19.879 7.75778H12.1214ZM12.1214 6.78809H19.879C22.8245 6.78809 25.2123 9.1759 25.2123 12.1214V19.879C25.2123 22.8245 22.8245 25.2123 19.879 25.2123H12.1214C9.1759 25.2123 6.78809 22.8245 6.78809 19.879V12.1214C6.78809 9.1759 9.1759 6.78809 12.1214 6.78809Z" fill="#4A4A4A"/>
<path d="M16.0004 20.3635C13.5904 20.3635 11.6367 18.4098 11.6367 15.9999C11.6367 13.5899 13.5904 11.6362 16.0004 11.6362C18.4103 11.6362 20.364 13.5899 20.364 15.9999C20.364 18.4098 18.4103 20.3635 16.0004 20.3635ZM16.0004 19.3938C17.8748 19.3938 19.3943 17.8743 19.3943 15.9999C19.3943 14.1254 17.8748 12.6059 16.0004 12.6059C14.1259 12.6059 12.6064 14.1254 12.6064 15.9999C12.6064 17.8743 14.1259 19.3938 16.0004 19.3938Z" fill="#4A4A4A"/>
</svg>
