<svg width="16" height="21" viewBox="0 0 16 21" fill="none" xmlns="http://www.w3.org/2000/svg">
<path d="M8 0C4.67619 0 2 2.62012 2 5.87429V6.85333C0.9 6.85333 0 7.73448 0 8.81143V18.6019C0 19.6789 0.9 20.56 2 20.56H14C15.1 20.56 16 19.6789 16 18.6019V8.81143C16 7.73448 15.1 6.85333 14 6.85333V5.87429C14 2.62012 11.3238 0 8 0ZM8 1.9581C10.2762 1.9581 12 3.64579 12 5.87429V6.85333H4V5.87429C4 3.64579 5.72381 1.9581 8 1.9581ZM8 11.7486C9.1 11.7486 10 12.6297 10 13.7067C10 14.7836 9.1 15.6648 8 15.6648C6.9 15.6648 6 14.7836 6 13.7067C6 12.6297 6.9 11.7486 8 11.7486Z" fill="#C0C9D2"/>
</svg>
