<svg width="106" height="52" viewBox="0 0 106 52" fill="none" xmlns="http://www.w3.org/2000/svg">
<circle cx="26" cy="26" r="26" fill="url(#paint0_linear)"/>
<path d="M40.2034 21.1535C39.2457 21.1535 38.4354 21.4923 37.7724 22.1553C37.1094 22.8183 36.7705 23.6287 36.7705 24.5716C36.7705 25.9418 37.684 27.1941 38.9952 27.6656L36.4758 31.4668H38.7595L41.1316 27.8866H42.2955V31.4668H44.3287V21.1535H40.2034ZM40.2034 26.1039C39.4372 26.1039 38.8037 25.4114 38.8037 24.5716C38.8037 23.7318 39.4372 23.0541 40.2034 23.0541H42.2955V26.1039H40.2034Z" fill="white"/>
<path d="M62.1203 31.6731C64.0061 31.6731 65.671 30.7301 66.555 29.2421L64.8017 28.2255C64.3155 29.1242 63.2989 29.6841 62.1203 29.6841C61.1184 29.6841 60.3081 29.3747 59.6893 28.7411C59.0852 28.1076 58.7758 27.2973 58.7758 26.3101C58.7758 25.3083 59.0852 24.4979 59.6893 23.8644C60.3081 23.2309 61.1184 22.9215 62.1203 22.9215C63.2989 22.9215 64.2861 23.4666 64.8017 24.3948L66.555 23.3782C65.671 21.8901 63.9914 20.9472 62.1203 20.9472C60.5733 20.9472 59.2915 21.4629 58.2749 22.4942C57.2583 23.5108 56.7573 24.7926 56.7573 26.3101C56.7573 27.8277 57.2583 29.0947 58.2749 30.1261C59.2915 31.1574 60.5733 31.6731 62.1203 31.6731ZM80.7293 25.2493H76.8986V21.1535H74.8654V31.4668H76.8986V27.1941H80.7293V31.4668H82.7477V21.1535H80.7293V25.2493ZM100.403 30.1261C101.449 29.08 101.965 27.8129 101.965 26.3101C101.965 24.8073 101.449 23.5403 100.403 22.5089C99.3569 21.4629 98.0899 20.9472 96.6018 20.9472C95.1137 20.9472 93.8467 21.4629 92.8006 22.5089C91.7693 23.5403 91.2536 24.8073 91.2536 26.3101C91.2536 27.8129 91.7693 29.08 92.8006 30.1261C93.8467 31.1574 95.1137 31.6731 96.6018 31.6731C98.0899 31.6731 99.3569 31.1574 100.403 30.1261ZM94.2297 28.7411C93.5962 28.1076 93.2721 27.2973 93.2721 26.3101C93.2721 25.323 93.5962 24.5127 94.2297 23.8791C94.8633 23.2456 95.6589 22.9215 96.6018 22.9215C97.5447 22.9215 98.3403 23.2456 98.9739 23.8791C99.6074 24.5127 99.9315 25.323 99.9315 26.3101C99.9315 27.2973 99.6074 28.1076 98.9739 28.7411C98.3403 29.3747 97.5447 29.6841 96.6018 29.6841C95.6589 29.6841 94.8633 29.3747 94.2297 28.7411Z" fill="#3D99E3"/>
<defs>
<linearGradient id="paint0_linear" x1="0" y1="0" x2="52" y2="52" gradientUnits="userSpaceOnUse">
<stop stop-color="#5FBDF2"/>
<stop offset="1" stop-color="#3591E0"/>
</linearGradient>
</defs>
</svg>
