<?xml version="1.0" encoding="utf-8"?>
<!-- Generator: Adobe Illustrator 22.0.1, SVG Export Plug-In . SVG Version: 6.00 Build 0)  -->
<svg version="1.1" id="Слой_2" xmlns="http://www.w3.org/2000/svg" xmlns:xlink="http://www.w3.org/1999/xlink" x="0px" y="0px"
	 viewBox="0 0 160 120" style="enable-background:new 0 0 160 120;" xml:space="preserve">
<style type="text/css">
	.st0{fill:#1D1D1B;}
	.st1{fill:#43A7F5;}
	.st2{fill:#1D1D1B;stroke:#1D1D1B;stroke-width:1.5;stroke-linecap:round;stroke-linejoin:round;stroke-miterlimit:10;}
	.st3{fill:none;stroke:#1D1D1B;stroke-width:1.5;stroke-linecap:round;stroke-linejoin:round;stroke-miterlimit:10;}
	.st4{fill:none;stroke:#FFFFFF;stroke-width:1.5;stroke-linecap:round;stroke-linejoin:round;stroke-miterlimit:10;}
	.st5{fill:#FFFFFF;stroke:#1D1D1B;stroke-width:1.5;stroke-linecap:round;stroke-linejoin:round;stroke-miterlimit:10;}
	.st6{fill:#43A7F5;stroke:#43A7F5;stroke-width:1.5;stroke-linecap:round;stroke-linejoin:round;stroke-miterlimit:10;}
	.st7{fill:#D6D7D8;stroke:#D6D7D8;stroke-width:1.5;stroke-linecap:round;stroke-linejoin:round;stroke-miterlimit:10;}
</style>
<path class="st0" d="M61.8,54.8c-0.6-5.5-1.1-10.7-3.3-16.1c-1.3-3.2-2.8-6-4.6-8.5c-1.7-2.4-3.6-5.1-6.1-7.2
	c-0.2-0.2-0.5-0.2-0.8-0.1c-0.3,0.1-0.4,0.4-0.4,0.7c0,1.3-0.1,2.6-0.1,3.9c-0.2,4.7-0.4,9.6,0.2,14.6c0.1,0.4,0.1,0.8,0.2,1.2
	c4.4,3.3,8.3,8.5,11,14.7c0.2,0.4,0,0.8-0.4,1c-0.1,0-0.2,0.1-0.3,0.1c-0.3,0-0.6-0.2-0.7-0.5c-2.4-5.6-5.8-10.3-9.7-13.5
	c-2.5-2-5.3-3.4-8.6-4.4c-0.2-0.1-0.5,0-0.7,0.2c-0.2,0.2-0.3,0.4-0.2,0.7c1.6,9.1,7.4,14,12.9,17.7c0.1,0.1,0.3,0.1,0.5,0.1
	l1.7-0.2c0.1,0.2,0.4,0.4,0.7,0.4c0,0,0,0,0,0l8.4-0.2c0.2,0,0.4-0.1,0.5-0.3c0.1-0.2,0.2-0.4,0.2-0.6C62,57.3,61.9,56.1,61.8,54.8z
	"/>
<polygon class="st1" points="93.4,48.7 87.1,75.7 120.6,75.5 126.8,48.7 "/>
<path class="st2" d="M77.8,38.8c0.2-0.7,0.7-1.3,1.3-1.6c0-0.1,0-0.2,0-0.3c0.1-2.8,0.2-5.4,0-8.2C68.4,34.8,63.4,46.3,62,58.2
	l11.2,0.5L77.8,38.8z"/>
<path class="st3" d="M66.4,29.4c0.6,1.5,0.7,4.3-1.4,4.6c-1.2,0.1-2.6-0.6-2.6-2c0-0.3,0.1-0.7,0.2-1c0.2-0.6,0.4-1.2,0.8-1.7
	c-1.1,0.4-3.3,0-4-0.9c-0.8-1-0.2-2.6,0.8-3.1c1.2-0.6,3.1-0.2,3.7,1c-0.5-1.2-1.5-2.5-0.6-3.8c0.7-1,2-1.4,3-0.7
	c1.6,1.1,1,3.4,0,4.7c1.2-1.2,3.3-0.7,4.2,0.7c1,1.6-0.2,3.3-2,3.1C67.8,30.2,67,29.9,66.4,29.4"/>
<path class="st3" d="M63,33.8c-0.5,7.3-1.3,14.5-1.3,21.7"/>
<path class="st4" d="M49.2,28c1.6,4.6,3.4,9.1,4.5,13.8c1.4,5.6,2.9,11.1,3.8,16.8"/>
<line class="st3" x1="46.7" y1="58.8" x2="73.2" y2="58.8"/>
<path class="st3" d="M51.9,94.7c-0.3-6.8-1.2-13.4-2.8-20c-1.2-5.2-1.7-10.6-2.4-15.8"/>
<path class="st3" d="M100.6,72.5l1.4-6.1l6.8-1.3c-0.1,1.9-0.3,5.4-0.4,7.3"/>
<path class="st2" d="M102.1,67.1c-0.5,1.1-1.3,3.1-2.6,3.3c-1.2,0.2-2.1-0.7-2.2-1.8c-0.2-1.9,0.6-4.2,1.1-6.1c0.6-2,1.4-4,2.2-5.8
	c0.9-1.9,2.5-4.1,4.6-4.6c3-0.6,5.9,0.6,6.8,3.6c0.7,2.4,0.5,4.7,0.5,7.2c0,1.8,0.1,3.6,0,5.4c0,1.5-1.3,2.9-2.8,2.7
	c-1.8-0.2-1.2-3.6-1.1-4.9"/>
<path class="st5" d="M111.6,58.3c-0.1,0.3-0.1,0.5-0.2,0.8c-0.6,2.8-1.1,7.2-4.1,8.5c-2.9,1.2-5.6-0.2-6-3.5
	c-0.3-2.3,0.2-4.6,0.4-6.9c2.1-0.9,3.8-2.5,5.2-4.4C108,55.2,109.2,57.7,111.6,58.3z"/>
<line class="st3" x1="124.3" y1="44" x2="126.8" y2="47.1"/>
<line class="st3" x1="127.3" y1="44" x2="123.7" y2="47"/>
<line class="st3" x1="118.2" y1="45.5" x2="121.9" y2="45.5"/>
<line class="st3" x1="100.6" y1="72.5" x2="93.1" y2="75.6"/>
<line class="st3" x1="108.4" y1="72.3" x2="114.3" y2="75.7"/>
<path class="st3" d="M107.2,64.2c-0.9,0.5-1.9,0.6-2.8,0c-0.2-0.1-0.1-0.2-0.2-0.3"/>
<path class="st6" d="M123.1,87.4c0,0-10.8,0-10.8,0c-4.4,0-4.9-5.2-0.5-5.7c1.1-0.1,2.2,0,3.3,0c2.9,0,5.7,0,8.6,0
	c1.5,0,3,1.3,2.9,2.9C126.6,86.3,124.7,87.4,123.1,87.4z"/>
<path class="st6" d="M121.2,87c0.5,1.5,1,3.2,1.5,4.6c-1.3-1.3-2.6-2.7-3.8-4.1"/>
<line class="st3" x1="112.6" y1="84.5" x2="122.7" y2="84.5"/>
<path class="st7" d="M149.1,37h-69c-1.1,0-2,0.8-2.3,1.8L64.8,95H11.6c-1.2,0-2.3,1-2.3,2.3c0,1.2,1,2.3,2.3,2.3h52.2h74.8
	l12.7-59.9C151.5,38.2,150.5,37,149.1,37z M135.5,95H68.8l12.6-53.8H147L135.5,95z"/>
<line class="st3" x1="13" y1="95" x2="139.6" y2="94.4"/>
<line class="st3" x1="51" y1="97.2" x2="56" y2="97.2"/>
<circle class="st0" cx="59.4" cy="97.2" r="0.8"/>
<circle class="st0" cx="62.4" cy="97.2" r="0.8"/>
<circle class="st0" cx="114" cy="39.1" r="1.3"/>
</svg>
