<svg width="191" height="144" viewBox="0 0 191 144" fill="none" xmlns="http://www.w3.org/2000/svg">
<path d="M35.2158 74.285C40.9458 73.8075 45.4821 70.465 49.4214 66.5256C52.5252 63.4219 55.0321 59.8406 58.3746 56.9756C62.5527 53.1556 67.4471 50.0519 72.6996 48.0225C79.2652 45.5156 87.5021 45.2769 94.4258 46.1125C111.616 48.0225 126.896 58.6469 130.358 76.3144C131.79 83.9544 130.835 92.0719 127.254 99.115C122.837 107.829 114.72 112.485 105.766 115.589C93.3514 119.767 79.8621 118.334 67.8052 113.559C55.8677 108.784 46.9146 99.2344 35.2158 93.5044V74.285Z" fill="#D6D7D8"/>
<path d="M75.8027 54.5881C74.2508 49.0969 69.7146 38.1144 63.3877 37.2787C63.9846 43.9637 64.3427 50.1712 64.7008 56.6175" fill="#D6D7D8"/>
<path d="M75.8027 54.5881C74.2508 49.0969 69.7146 38.1144 63.3877 37.2787C63.9846 43.9637 64.3427 50.1712 64.7008 56.6175" stroke="#1D1D1B" stroke-width="1.79063" stroke-miterlimit="10" stroke-linecap="round" stroke-linejoin="round"/>
<path d="M52.7633 69.9875C53.3602 69.8681 53.9571 70.1068 54.3152 70.8231C54.9121 71.8975 54.6733 74.285 53.9571 75.3593C53.0021 76.7918 51.5696 76.7918 51.0921 75.0012C50.7339 73.8075 50.8533 72.1362 51.4502 71.0619C51.8083 70.465 52.2858 70.1068 52.7633 69.9875Z" fill="#1D1D1B"/>
<path d="M137.521 90.9975C136.685 90.8781 135.85 90.52 135.372 89.8038C134.179 88.2519 134.537 85.9838 134.537 84.1931C134.537 82.4025 134.537 80.4925 134.537 78.7019C134.537 76.6725 134.179 74.285 136.566 73.4494C137.64 72.9719 139.073 73.2106 140.028 73.8075C141.58 74.8819 141.222 78.2244 141.222 79.7763C141.222 81.5669 141.222 83.4769 141.222 85.2675C141.341 87.655 140.744 91.2363 137.521 90.9975Z" fill="#D6D7D8"/>
<path d="M111.258 62.1088C115.437 59.6019 122.122 68.1969 120.092 71.8975C118.779 74.4044 115.795 72.9719 114.243 71.5394C113.288 70.7038 112.452 69.8681 111.736 68.9131C110.184 67.1225 108.393 63.78 111.258 62.1088Z" fill="white"/>
<path d="M139.907 35.2494C140.027 35.2494 140.027 35.2494 140.146 35.2494C138.117 34.6525 136.684 34.0556 135.729 32.0262C134.893 30.355 134.535 28.9225 134.297 27.0125C133.58 30.7131 130.596 33.9362 127.015 35.0106C130.118 36.6819 132.028 40.1438 131.909 43.6056C132.625 41.5763 133.342 40.0244 134.774 38.5919C135.968 37.2787 137.997 35.4881 139.907 35.2494Z" stroke="#1D1D1B" stroke-width="1.79063" stroke-miterlimit="10" stroke-linecap="round" stroke-linejoin="round"/>
<path d="M63.7461 111.172C64.7011 115.828 65.298 121.677 67.3273 125.974C67.8048 126.929 68.7598 127.884 69.8342 127.884C70.6698 127.884 71.5055 127.407 72.1023 126.691C72.6992 125.974 73.0573 125.258 73.4155 124.422C74.848 120.841 76.0417 117.141 77.1161 113.559" fill="#D6D7D8"/>
<path d="M102.305 117.26C103.379 119.17 104.334 121.199 105.528 122.99C106.125 123.826 106.722 124.542 107.318 125.378C108.273 126.691 109.945 128.601 111.735 127.765C113.168 127.049 113.526 125.019 113.884 123.587C114.242 121.916 114.362 120.125 114.481 118.454C114.6 116.305 114.6 114.156 114.839 112.008" fill="#D6D7D8"/>
<path d="M40.3486 128.481H139.43" stroke="#1D1D1B" stroke-width="1.79063" stroke-miterlimit="10" stroke-linecap="round" stroke-linejoin="round"/>
<path d="M76.3996 116.066C73.4152 115.35 70.5502 114.395 67.8046 113.321C66.2527 112.724 64.8202 112.008 63.3877 111.291" stroke="#1D1D1B" stroke-width="1.79063" stroke-miterlimit="10" stroke-linecap="round" stroke-linejoin="round"/>
<path d="M114.839 111.411C111.974 112.963 108.989 114.276 105.766 115.35C104.334 115.828 103.02 116.186 101.588 116.544" stroke="#1D1D1B" stroke-width="1.79063" stroke-miterlimit="10" stroke-linecap="round" stroke-linejoin="round"/>
<path d="M104.573 48.8581C101.35 47.7838 98.0073 47.0675 94.5454 46.7094C89.8898 46.2319 84.7567 46.1125 79.8623 46.8288V50.1713C88.0992 49.0969 96.4554 50.1713 104.454 52.5588L104.573 48.8581Z" fill="#1D1D1B" stroke="#1D1D1B" stroke-width="1.79063" stroke-miterlimit="10" stroke-linecap="round" stroke-linejoin="round"/>
<path d="M35.8125 74.7625C37.245 77.6275 37.7225 80.8506 37.7225 83.9544C37.6031 86.9387 37.3644 90.1619 35.9319 92.7881L35.8125 74.7625Z" fill="#1D1D1B" stroke="#1D1D1B" stroke-width="1.79063" stroke-miterlimit="10" stroke-linecap="round" stroke-linejoin="round"/>
<path d="M143.966 86.5806C143.608 86.5806 143.13 86.3419 142.892 85.9837C142.295 85.1481 142.414 84.0737 142.414 83.1187C142.414 82.1637 142.414 81.3281 142.414 80.3731C142.414 79.4181 142.295 78.2244 143.369 77.7469C143.966 77.5081 144.563 77.6275 145.04 77.9856C145.757 78.4631 145.637 80.1344 145.637 80.97C145.637 81.925 145.637 82.7606 145.637 83.7156C145.876 84.9094 145.637 86.7 143.966 86.5806Z" fill="#D6D7D8"/>
<path d="M153.994 15.075L142.057 27.0125" stroke="#43A7F5" stroke-width="1.79063" stroke-miterlimit="10" stroke-linecap="round" stroke-linejoin="round"/>
<path d="M164.737 31.7875L146.831 34.175" stroke="#43A7F5" stroke-width="1.79063" stroke-miterlimit="10" stroke-linecap="round" stroke-linejoin="round"/>
<path d="M163.544 48.5L145.638 42.5312" stroke="#43A7F5" stroke-width="1.79063" stroke-miterlimit="10" stroke-linecap="round" stroke-linejoin="round"/>
</svg>
