<svg width="344" height="258" viewBox="0 0 344 258" fill="none" xmlns="http://www.w3.org/2000/svg">
<path d="M293.089 181.115C289.649 179.739 286.381 178.019 283.113 176.299C277.437 173.203 272.793 170.623 269.697 164.947C266.429 159.099 262.645 155.315 256.969 151.531C251.981 148.263 246.649 145.339 243.037 140.351" stroke="#1D1D1B" stroke-width="2.952" stroke-miterlimit="10" stroke-linecap="round" stroke-linejoin="round"/>
<path d="M312.008 252.841C299.452 244.929 282.08 228.761 270.212 219.817C278.64 205.025 287.412 190.577 296.184 176.129C309.6 182.665 326.8 190.921 340.216 197.457L330.584 214.485L335.228 217.065L312.008 252.841Z" fill="#D6D7D8" stroke="#D6D7D8" stroke-width="2.952" stroke-miterlimit="10" stroke-linecap="round" stroke-linejoin="round"/>
<path d="M175.955 88.5794C162.023 82.7314 148.779 76.1954 135.879 68.2834C128.483 63.8114 121.603 57.2754 119.711 48.3314C117.991 40.0754 122.119 32.3354 130.031 29.4114C142.587 24.7674 151.703 36.2914 157.035 45.9234C164.431 59.3394 168.903 73.7874 175.095 87.7194" stroke="#43A7F5" stroke-width="4.92" stroke-miterlimit="10" stroke-linecap="round" stroke-linejoin="round"/>
<path d="M174.924 88.2367C180.084 74.4767 186.62 56.9327 196.596 45.7527C203.132 38.5287 217.064 30.6167 225.32 40.2487C232.544 48.6767 226.524 59.6847 219.644 66.0487C216.032 69.3167 211.904 71.8967 207.776 74.4767C198.144 80.1527 188.168 85.4847 177.676 89.0967" stroke="#43A7F5" stroke-width="4.92" stroke-miterlimit="10" stroke-linecap="round" stroke-linejoin="round"/>
<path d="M280.534 71.3802V59.3402" stroke="#1D1D1B" stroke-width="2.952" stroke-miterlimit="10" stroke-linecap="round" stroke-linejoin="round"/>
<path d="M280.534 97.0073V84.2793" stroke="#1D1D1B" stroke-width="2.952" stroke-miterlimit="10" stroke-linecap="round" stroke-linejoin="round"/>
<path d="M287.066 78.0879H299.45" stroke="#1D1D1B" stroke-width="2.952" stroke-miterlimit="10" stroke-linecap="round" stroke-linejoin="round"/>
<path d="M261.617 78.0879H274.517" stroke="#1D1D1B" stroke-width="2.952" stroke-miterlimit="10" stroke-linecap="round" stroke-linejoin="round"/>
<path d="M93.7333 54.1808C93.5613 54.5248 93.2173 54.8688 92.7013 55.2128C90.4653 56.0728 88.7453 53.6648 90.6373 51.9448C92.7013 50.2248 94.5933 52.6328 93.7333 54.1808Z" fill="#1D1D1B" stroke="#1D1D1B" stroke-width="2.952" stroke-miterlimit="10" stroke-linecap="round" stroke-linejoin="round"/>
<path d="M335.058 217.065C323.362 210.185 286.038 191.781 280.534 187.825C275.718 184.557 270.73 182.149 266.774 177.505C263.85 173.893 261.958 169.421 258.518 166.325C255.25 163.401 251.638 161.165 248.026 158.929C243.554 156.005 238.91 153.081 234.438 149.985C232.89 148.953 230.31 146.889 228.762 148.609C225.494 152.049 228.934 156.177 231.686 158.585C235.986 162.369 241.146 165.121 244.586 169.593" stroke="#1D1D1B" stroke-width="2.952" stroke-miterlimit="10" stroke-linecap="round" stroke-linejoin="round"/>
<path d="M107.5 168.905C113.004 165.465 118.852 162.541 124.184 158.757C126.42 157.209 131.408 151.705 128.312 148.953C127.624 148.437 126.764 148.437 125.904 148.437C124.7 148.609 124.184 148.781 123.152 149.297C115.24 153.941 107.156 158.241 98.7283 161.681C92.5363 164.261 89.2683 169.765 85.1403 174.753C80.6683 180.257 73.4443 184.385 67.4243 187.653" stroke="#1D1D1B" stroke-width="2.952" stroke-miterlimit="10" stroke-linecap="round" stroke-linejoin="round"/>
<path d="M64.6731 174.236C69.4891 172 74.8211 169.763 78.7771 166.323C83.2491 162.367 86.1731 156.348 90.8171 152.736C95.8051 148.952 105.609 146.028 111.629 143.964" stroke="#1D1D1B" stroke-width="2.952" stroke-miterlimit="10" stroke-linecap="round" stroke-linejoin="round"/>
<path d="M61.061 175.267L82.561 227.555" stroke="#43A7F5" stroke-width="2.952" stroke-miterlimit="10" stroke-linecap="round" stroke-linejoin="round"/>
<path d="M31.8218 254.56L82.5618 227.556" stroke="#43A7F5" stroke-width="2.952" stroke-miterlimit="10" stroke-linecap="round" stroke-linejoin="round"/>
<path d="M20.9807 234.78L74.4727 207.776" stroke="#43A7F5" stroke-width="2.952" stroke-miterlimit="10" stroke-linecap="round" stroke-linejoin="round"/>
<path d="M10.3218 197.283L61.0618 175.267" stroke="#43A7F5" stroke-width="2.952" stroke-miterlimit="10" stroke-linecap="round" stroke-linejoin="round"/>
<path d="M63.6405 237.703L40.9365 185.415" stroke="#43A7F5" stroke-width="2.952" stroke-miterlimit="10" stroke-linecap="round" stroke-linejoin="round"/>
<path d="M19.2634 193.328L43.5154 248.368" stroke="#43A7F5" stroke-width="2.952" stroke-miterlimit="10" stroke-linecap="round" stroke-linejoin="round"/>
<path d="M70.0022 220.332C64.6702 218.956 63.2942 228.932 69.1422 228.072C73.0982 227.556 74.1302 221.192 70.0022 220.332Z" stroke="#1D1D1B" stroke-width="2.952" stroke-miterlimit="10" stroke-linecap="round" stroke-linejoin="round"/>
<path d="M194.356 89.7842H249.568V120.916H104.744V89.7842H160.644" stroke="#1D1D1B" stroke-width="2.952" stroke-miterlimit="10" stroke-linecap="round" stroke-linejoin="round"/>
<path d="M116.104 152.047L116.448 120.915" stroke="#1D1D1B" stroke-width="2.952" stroke-miterlimit="10" stroke-linecap="round" stroke-linejoin="round"/>
<path d="M183.528 202.615L176.82 87.8915L173.38 202.959L183.528 202.615Z" fill="#43A7F5" stroke="#43A7F5" stroke-width="2.952" stroke-miterlimit="10" stroke-linecap="round" stroke-linejoin="round"/>
<path d="M267.458 33.1968C267.63 33.1968 267.802 33.1968 267.802 33.1968C264.19 31.9928 261.782 31.1328 260.062 27.5208C258.514 24.5968 257.826 22.0168 257.654 18.7488C256.45 25.2848 251.29 30.9608 244.754 32.6808C250.258 35.7768 253.526 41.6248 253.354 47.8168C254.73 44.3768 255.762 41.6248 258.514 38.8728C260.578 36.8088 264.362 33.7128 267.458 33.1968Z" stroke="#1D1D1B" stroke-width="2.952" stroke-miterlimit="10" stroke-linecap="round" stroke-linejoin="round"/>
<path d="M71.898 78.0876C69.146 77.9156 66.394 76.5396 64.674 74.3036C62.954 72.0676 61.922 68.6276 62.094 65.8756C61.062 71.7236 57.622 77.0556 52.634 80.4956C55.214 80.6676 57.45 82.3876 59.17 84.4516C60.89 86.5156 61.75 88.9236 62.782 91.5036C64.846 87.0316 68.458 81.6996 71.898 78.0876Z" stroke="#1D1D1B" stroke-width="2.952" stroke-miterlimit="10" stroke-linecap="round" stroke-linejoin="round"/>
<path d="M134.156 204.508H224.112" stroke="#1D1D1B" stroke-width="2.952" stroke-miterlimit="10" stroke-linecap="round" stroke-linejoin="round"/>
<path d="M107.327 169.42C115.411 168.388 123.495 166.152 130.891 162.884C134.847 161.164 138.459 158.756 142.071 156.348C145.167 154.284 149.123 150.844 152.907 150.672C154.283 150.672 156.175 151.876 156.175 153.424C156.175 155.144 153.767 157.208 152.735 158.24C143.619 166.84 132.095 172.172 121.259 178.364" stroke="#1D1D1B" stroke-width="2.952" stroke-miterlimit="10" stroke-linecap="round" stroke-linejoin="round"/>
<path d="M156.178 154.799C157.382 154.627 158.414 154.627 159.618 154.799C160.822 154.971 161.854 155.831 162.198 156.863C163.058 159.099 159.446 162.195 158.07 163.571C149.298 172.515 137.946 179.911 126.422 184.727" stroke="#1D1D1B" stroke-width="2.952" stroke-miterlimit="10" stroke-linecap="round" stroke-linejoin="round"/>
<path d="M162.024 168.904C153.94 179.396 141.04 186.276 129 190.748" stroke="#1D1D1B" stroke-width="2.952" stroke-miterlimit="10" stroke-linecap="round" stroke-linejoin="round"/>
<path d="M152.561 185.072C147.229 189.716 141.037 194.188 134.329 196.94C130.029 198.66 125.557 200.38 120.913 201.412C106.981 204.164 89.7806 207.776 77.5686 215.688" stroke="#1D1D1B" stroke-width="2.952" stroke-miterlimit="10" stroke-linecap="round" stroke-linejoin="round"/>
<path d="M244.583 169.938C237.015 165.81 229.619 161.338 222.911 156.006C219.471 153.426 216.375 150.502 213.279 147.406C211.387 145.514 207.431 142.934 204.507 144.138C200.895 145.514 204.679 150.33 206.055 151.878C213.451 159.962 222.223 166.67 231.167 173.034" stroke="#1D1D1B" stroke-width="2.952" stroke-miterlimit="10" stroke-linecap="round" stroke-linejoin="round"/>
<path d="M227.728 170.451C221.88 166.839 216.204 162.711 210.7 158.583C206.916 155.659 203.304 152.219 198.832 150.671C195.736 149.639 191.78 152.047 193.844 155.315C194.876 157.035 196.424 158.239 197.8 159.615C200.896 162.539 204.508 164.603 207.776 167.183C213.624 171.483 219.644 175.611 226.008 179.051" stroke="#1D1D1B" stroke-width="2.952" stroke-miterlimit="10" stroke-linecap="round" stroke-linejoin="round"/>
<path d="M223.429 185.759C216.205 183.695 208.809 180.599 202.445 176.471C199.865 174.751 197.113 173.203 194.705 171.311C192.985 169.935 191.093 169.075 190.233 167.011C189.373 164.947 190.405 163.055 192.813 162.711C194.877 162.367 197.113 163.743 198.833 164.947C206.401 170.107 217.925 175.611 226.181 179.223" stroke="#1D1D1B" stroke-width="2.952" stroke-miterlimit="10" stroke-linecap="round" stroke-linejoin="round"/>
<path d="M271.416 214.14C265.224 209.668 259.72 206.228 252.324 203.992C243.208 201.24 234.092 199.004 224.976 196.252C218.612 194.36 211.904 193.328 205.368 191.608C202.444 190.92 196.252 189.2 195.392 185.932C194.016 181.116 201.584 183.352 203.82 184.04C210.356 185.932 216.72 186.276 223.6 186.448" stroke="#1D1D1B" stroke-width="2.952" stroke-miterlimit="10" stroke-linecap="round" stroke-linejoin="round"/>
<path d="M13.9341 213.624L67.4261 187.652" stroke="#1D1D1B" stroke-width="2.952" stroke-miterlimit="10" stroke-linecap="round" stroke-linejoin="round"/>
<path d="M275.022 210.012C278.29 212.42 281.386 214.656 284.654 217.064" stroke="#1D1D1B" stroke-width="2.952" stroke-miterlimit="10" stroke-linecap="round" stroke-linejoin="round"/>
<path d="M280.707 200.895C284.491 203.131 288.275 205.367 292.059 207.603" stroke="#1D1D1B" stroke-width="2.952" stroke-miterlimit="10" stroke-linecap="round" stroke-linejoin="round"/>
<path d="M290.159 184.729C293.255 185.933 296.179 187.309 299.275 188.513" stroke="#1D1D1B" stroke-width="2.952" stroke-miterlimit="10" stroke-linecap="round" stroke-linejoin="round"/>
<path d="M237.361 122.12V151.359" stroke="#1D1D1B" stroke-width="2.952" stroke-miterlimit="10" stroke-linecap="round" stroke-linejoin="round"/>
<path d="M296.699 135.02C296.527 135.364 296.183 135.708 295.667 136.052C293.431 136.912 291.711 134.504 293.603 132.784C295.667 131.064 297.559 133.472 296.699 135.02Z" fill="#1D1D1B" stroke="#1D1D1B" stroke-width="2.952" stroke-miterlimit="10" stroke-linecap="round" stroke-linejoin="round"/>
</svg>
