<svg width="34" height="34" viewBox="0 0 34 34" fill="none" xmlns="http://www.w3.org/2000/svg">
<path fill-rule="evenodd" clip-rule="evenodd" d="M17 1C25.837 1 33 8.164 33 17C33 25.837 25.837 33 17 33C8.163 33 1 25.837 1 17C1 8.164 8.163 1 17 1Z" stroke="#4A4A4A"/>
<path fill-rule="evenodd" clip-rule="evenodd" d="M15.2639 23.8049H16.4489C16.4489 23.8049 16.8049 23.7619 16.9889 23.5509C17.1579 23.3549 17.1529 22.9909 17.1529 22.9909C17.1529 22.9909 17.1279 21.2759 17.8659 21.0229C18.5929 20.7729 19.5249 22.6789 20.5159 23.4109C21.2629 23.9659 21.8319 23.8459 21.8319 23.8459L24.4769 23.8059C24.4769 23.8059 25.8599 23.7119 25.2039 22.5399C25.1509 22.4439 24.8239 21.6719 23.2379 20.0859C21.5789 18.4249 21.7989 18.6929 23.7979 15.8209C25.0149 14.0709 25.5019 13.0039 25.3489 12.5469C25.2039 12.1119 24.3089 12.2269 24.3089 12.2269L21.3299 12.2469C21.3299 12.2469 21.1079 12.2129 20.9459 12.3189C20.7859 12.4219 20.6829 12.6629 20.6829 12.6629C20.6829 12.6629 20.2129 14.0159 19.5809 15.1679C18.2559 17.5979 17.7239 17.7249 17.5079 17.5749C17.0039 17.2219 17.1309 16.1619 17.1309 15.4089C17.1309 13.0549 17.4609 12.0729 16.4869 11.8189C16.1609 11.7359 15.9239 11.6789 15.0949 11.6699C14.0309 11.6559 13.1329 11.6739 12.6249 11.9419C12.2849 12.1219 12.0239 12.5209 12.1819 12.5429C12.3799 12.5699 12.8259 12.6729 13.0619 13.0199C13.3679 13.4669 13.3579 14.4729 13.3579 14.4729C13.3579 14.4729 13.5319 17.2429 12.9499 17.5879C12.5459 17.8239 11.9959 17.3419 10.8129 15.1389C10.2059 14.0099 9.7509 12.7619 9.7509 12.7619C9.7509 12.7619 9.6609 12.5299 9.5029 12.4039C9.3129 12.2539 9.0469 12.2039 9.0469 12.2039L6.2159 12.2269C6.2159 12.2269 5.7919 12.2399 5.6359 12.4409C5.4979 12.6159 5.6239 12.9819 5.6239 12.9819C5.6239 12.9819 7.8399 18.5729 10.3509 21.3919C12.6509 23.9759 15.2639 23.8059 15.2639 23.8059V23.8049V23.8049Z" stroke="#4A4A4A"/>
</svg>
