<svg xmlns="http://www.w3.org/2000/svg" xmlns:xlink="http://www.w3.org/1999/xlink"><defs><linearGradient id="paint0_linear" x1="0" y1="0" x2="52" y2="52" gradientUnits="userSpaceOnUse"><stop stop-color="#5FBDF2"/><stop offset="1" stop-color="#3591E0"/></linearGradient></defs><symbol id="box" viewBox="0 0 160 120"><style>.st0{fill:#1d1d1b;stroke:#1d1d1b}.st0,.st1,.st2{stroke-width:1.5;stroke-linecap:round;stroke-linejoin:round;stroke-miterlimit:10}.st1{fill:#43a7f5;stroke:#43a7f5}.st2{fill:none;stroke:#1d1d1b}</style><path class="st0" d="M120.4 109.9c3 .3 4.8-1.2 6.5-3.5 1-1.3 1.8-2.7 2.6-4.1l-4.4-2c-2.1 1-3.9 2.5-5.4 4.1M61 94c-3.7-.6-7.8-.4-11.4 1-4.4 1.8-7.4 5.6-11.3 8.3 2.3-1.6 5.4-2.5 7.9-3.6 4.5-1.9 10.2-2.1 14.7.1L61 94z"/><circle class="st1" cx="85.6" cy="41.3" r="12.2"/><path class="st2" d="M61 73.3v33.2h47.1l.1-41.6H68.3L61 73.3z"/><path transform="rotate(-48.563 52.207 77.61)" class="st2" d="M25.1 73.9h54.3v7.4H25.1z"/><path class="st1" d="M85.3 106.5c1.9-3.4 3.2-6.3 5.5-9.5 1.6-2.2 3.8-5 6.3-6.2 5-2.4 9.5 3.7 11.6 7.3 1.7 3 3.2 6.1 5.3 8.9 1.1 1.4 2.6 2.3 4.4 2.7 1.2.3 2.5.3 3.7 0 .6-.1 1.2-.3 1.7-.6.3-.2 1.1-.9 1.5-.9-1 0-2-.7-2.8-1.3-1-.7-1.9-1.5-2.7-2.3-1-1-1.8-2-2.6-3.1l-3.3-4.2c-2.4-3.1-5-6.3-8.5-8-2.6-1.3-5.6-1.8-8.4-1.3-3.8.6-7.3 3.3-9.9 6-3.5 3.7-6.1 8.1-8.6 12.5h6.8z"/><path class="st2" d="M95 88.4c1.6-.5 3.9-.2 5.4.6 2.2 1.1 3.7 2.9 5 4.9 1.4 2.1 2.7 4.2 4 6.3 2.4 4 4.5 9.2 9.8 10 2.7.4 4.8-.8 6.7-2.7"/><path class="st1" d="M132.7 105.7c-.6-1.7-1.9-3.2-3.4-4.1-1-.6-1.8-.7-3-.9-.3 0-2.3.3-2.6.5.6-.4 2-1.3 2.7-1.5.9-.3 1.9-.5 2.8-.5 5.7.1 9.2 7.6 10 12.4h-5.7c0-2.1-.2-4.1-.8-5.9zm-116.5-9c3.4 6.3 10.9 8.8 17.7 8.2 2.9-.3 7.4-1.8 9.7-3.6-2.2 1.5-3.1 2-6 2.2-2.7.2-5.6-.4-7.9-1.8-3.2-1.9-5.3-5.2-7.3-8.2l-6.2 3.2z"/><path class="st2" d="M87.8 12.5V8.1m0 13.6v-4.6m2.3-2.2h4.5m-13.6 0h4.6M113.9 28h.1c-1.2-.4-2-.7-2.6-1.9-.5-1-.7-1.8-.8-2.9-.4 2.2-2.1 4.1-4.3 4.6 1.8 1 2.9 3 2.8 5 .4-1.2.8-2.1 1.7-2.9.8-.7 2-1.7 3.1-1.9zm-46.4-.6c-.2.4-.6.7-1.2.8-1.4.2-2.3-1.7-1-2.6 1.5-1 2.7.7 2.2 1.8zm35.6 28.5c.1.4 0 .9-.3 1.4-.9 1.1-2.9.3-2.5-1.2.5-1.8 2.5-1.4 2.8-.2z"/><path class="st0" d="M55.9 45.7c-.1.2-.2.3-.4.4-.9.4-1.7-.7-.9-1.3.9-.7 1.7.2 1.3.9z"/><path class="st2" d="M123.3 101.4c1.4-.7 3.2-.4 4.6.3.5.3 1 .6 1.4 1m-2-1.2c4.1 1.8 5.2 6.3 5.8 10.3M50.3 98.6c-4.2.8-7.5 3.8-11.8 4.6-3 .6-6.2 0-8.8-1.6-3.2-1.9-5.3-5.2-7.3-8.2"/><path class="st0" d="M61 73.3l8-8.4h1.9L61 75.3"/></symbol><symbol id="check" viewBox="0 0 12 9"><path d="M1.862 3.592A1.09 1.09 0 10.32 5.135l3.272 3.273a1.09 1.09 0 001.543 0l6.546-6.546A1.091 1.091 0 0010.138.32L4.364 6.094 1.862 3.592z" fill="#fff"/></symbol><symbol id="facebook" viewBox="0 0 34 34"><path clip-rule="evenodd" d="M17 1c8.837 0 16 7.164 16 16 0 8.837-7.163 16-16 16S1 25.837 1 17C1 8.164 8.163 1 17 1z" fill="none" stroke="#4A4A4A"/><path clip-rule="evenodd" d="M12.773 14.033h1.812v-1.761c0-.776.02-1.974.583-2.715.595-.786 1.41-1.32 2.813-1.32 2.284 0 3.247.327 3.247.327l-.453 2.684s-.755-.218-1.46-.218c-.704 0-1.335.25-1.335.956v2.047h2.89l-.201 2.62H17.98v9.109h-3.396v-9.108h-1.811v-2.621z" fill="none" stroke="#4A4A4A"/></symbol><symbol id="heart" viewBox="0 0 15 13"><path d="M6.83 11.414l-.317-.152c-1.387-.665-2.87-1.784-3.891-3.17C1.598 6.704.985 4.969 1.534 3.147c.35-1.177 1.485-2.025 2.78-1.828L6.83 11.414zm0 0l.273-.156m-.272.156l.272-.156m0 0l.28.056.25-.224c.467-.42.961-.816 1.472-1.22l.174-.137c.452-.358.916-.724 1.363-1.108h0c.525-.45 1.147-.996 1.673-1.622.525-.626.99-1.375 1.157-2.246v-.003a3.581 3.581 0 00-.525-2.609c-.506-.758-1.345-1.307-2.418-1.28-1.068.021-1.856.573-2.444 1.216-.462.506-.845 1.12-1.165 1.645-.41-1.032-1.212-2.196-2.606-2.407l2.789 9.94z" fill="#F7E3CA" stroke="#141414" stroke-width="1.343"/></symbol><symbol id="instagram" viewBox="0 0 32 32"><path d="M20.849 11.151a.97.97 0 100-1.939.97.97 0 000 1.94z" fill="#4A4A4A"/><path d="M16 32C7.163 32 0 24.837 0 16S7.163 0 16 0s16 7.163 16 16-7.163 16-16 16zm0-.97c8.301 0 15.03-6.729 15.03-15.03C31.03 7.699 24.301.97 16 .97 7.699.97.97 7.699.97 16c0 8.301 6.729 15.03 15.03 15.03z" fill="#4A4A4A"/><path d="M12.121 7.758a4.364 4.364 0 00-4.363 4.363v7.758a4.364 4.364 0 004.363 4.364h7.758a4.364 4.364 0 004.364-4.364v-7.758a4.364 4.364 0 00-4.364-4.363h-7.758zm0-.97h7.758a5.333 5.333 0 015.333 5.333v7.758a5.333 5.333 0 01-5.333 5.333h-7.758a5.333 5.333 0 01-5.333-5.333v-7.758a5.333 5.333 0 015.333-5.333z" fill="#4A4A4A"/><path d="M16 20.363a4.364 4.364 0 110-8.727 4.364 4.364 0 010 8.727zm0-.97a3.394 3.394 0 100-6.787 3.394 3.394 0 000 6.788z" fill="#4A4A4A"/></symbol><symbol id="logo" viewBox="0 0 106 52"><circle cx="26" cy="26" r="26" fill="url(#paint0_linear)"/><path d="M40.203 21.154c-.957 0-1.768.338-2.43 1.001a3.304 3.304 0 00-1.003 2.417c0 1.37.914 2.622 2.225 3.094l-2.52 3.8h2.285l2.372-3.58h1.163v3.58h2.034V21.154h-4.126zm0 4.95c-.766 0-1.4-.693-1.4-1.532 0-.84.634-1.518 1.4-1.518h2.092v3.05h-2.092z" fill="#fff"/><path d="M62.12 31.673c1.886 0 3.551-.943 4.435-2.43l-1.753-1.017c-.487.898-1.503 1.458-2.682 1.458-1.002 0-1.812-.31-2.43-.943-.605-.633-.914-1.444-.914-2.43 0-1.003.31-1.813.913-2.447.62-.633 1.43-.942 2.431-.942 1.179 0 2.166.545 2.682 1.473l1.753-1.017c-.884-1.488-2.564-2.43-4.435-2.43-1.547 0-2.828.515-3.845 1.546-1.017 1.017-1.518 2.299-1.518 3.816 0 1.518.501 2.785 1.518 3.816 1.017 1.031 2.298 1.547 3.845 1.547zm18.61-6.424h-3.831v-4.095h-2.034v10.313H76.9v-4.273h3.83v4.273h2.019V21.154H80.73v4.095zm19.673 4.877c1.046-1.046 1.562-2.313 1.562-3.816 0-1.503-.516-2.77-1.562-3.801-1.046-1.046-2.313-1.562-3.801-1.562s-2.755.516-3.801 1.562c-1.032 1.031-1.547 2.298-1.547 3.801 0 1.503.515 2.77 1.547 3.816 1.046 1.031 2.313 1.547 3.8 1.547 1.489 0 2.756-.516 3.802-1.547zm-6.173-1.385c-.634-.633-.958-1.444-.958-2.43 0-.988.324-1.798.958-2.432.633-.633 1.429-.957 2.372-.957.943 0 1.738.324 2.372.957.633.634.957 1.444.957 2.431 0 .987-.324 1.798-.957 2.431-.634.634-1.43.943-2.372.943-.943 0-1.739-.31-2.372-.943z" fill="#3D99E3"/></symbol><symbol id="notebook" viewBox="0 0 160 120"><style>.st0,.st2{fill:#1d1d1b}.st2{stroke-width:1.5;stroke-linecap:round;stroke-linejoin:round;stroke-miterlimit:10}.st2,.st3{stroke:#1d1d1b}.st3,.st6{stroke-width:1.5;stroke-linecap:round;stroke-linejoin:round;stroke-miterlimit:10}.st3{fill:none}.st6{fill:#43a7f5;stroke:#43a7f5}</style><path class="st0" d="M61.8 54.8c-.6-5.5-1.1-10.7-3.3-16.1-1.3-3.2-2.8-6-4.6-8.5-1.7-2.4-3.6-5.1-6.1-7.2-.2-.2-.5-.2-.8-.1-.3.1-.4.4-.4.7 0 1.3-.1 2.6-.1 3.9-.2 4.7-.4 9.6.2 14.6.1.4.1.8.2 1.2 4.4 3.3 8.3 8.5 11 14.7.2.4 0 .8-.4 1-.1 0-.2.1-.3.1-.3 0-.6-.2-.7-.5-2.4-5.6-5.8-10.3-9.7-13.5-2.5-2-5.3-3.4-8.6-4.4-.2-.1-.5 0-.7.2-.2.2-.3.4-.2.7 1.6 9.1 7.4 14 12.9 17.7.1.1.3.1.5.1l1.7-.2c.1.2.4.4.7.4l8.4-.2c.2 0 .4-.1.5-.3.1-.2.2-.4.2-.6-.2-1.2-.3-2.4-.4-3.7z"/><path fill="#43a7f5" d="M93.4 48.7l-6.3 27 33.5-.2 6.2-26.8z"/><path class="st2" d="M77.8 38.8c.2-.7.7-1.3 1.3-1.6v-.3c.1-2.8.2-5.4 0-8.2C68.4 34.8 63.4 46.3 62 58.2l11.2.5 4.6-19.9z"/><path class="st3" d="M66.4 29.4c.6 1.5.7 4.3-1.4 4.6-1.2.1-2.6-.6-2.6-2 0-.3.1-.7.2-1 .2-.6.4-1.2.8-1.7-1.1.4-3.3 0-4-.9-.8-1-.2-2.6.8-3.1 1.2-.6 3.1-.2 3.7 1-.5-1.2-1.5-2.5-.6-3.8.7-1 2-1.4 3-.7 1.6 1.1 1 3.4 0 4.7 1.2-1.2 3.3-.7 4.2.7 1 1.6-.2 3.3-2 3.1-.7-.1-1.5-.4-2.1-.9M63 33.8c-.5 7.3-1.3 14.5-1.3 21.7"/><path d="M49.2 28c1.6 4.6 3.4 9.1 4.5 13.8 1.4 5.6 2.9 11.1 3.8 16.8" fill="none" stroke="#fff" stroke-width="1.5" stroke-linecap="round" stroke-linejoin="round" stroke-miterlimit="10"/><path class="st3" d="M46.7 58.8h26.5M51.9 94.7c-.3-6.8-1.2-13.4-2.8-20-1.2-5.2-1.7-10.6-2.4-15.8m53.9 13.6l1.4-6.1 6.8-1.3c-.1 1.9-.3 5.4-.4 7.3"/><path class="st2" d="M102.1 67.1c-.5 1.1-1.3 3.1-2.6 3.3-1.2.2-2.1-.7-2.2-1.8-.2-1.9.6-4.2 1.1-6.1.6-2 1.4-4 2.2-5.8.9-1.9 2.5-4.1 4.6-4.6 3-.6 5.9.6 6.8 3.6.7 2.4.5 4.7.5 7.2 0 1.8.1 3.6 0 5.4 0 1.5-1.3 2.9-2.8 2.7-1.8-.2-1.2-3.6-1.1-4.9"/><path d="M111.6 58.3c-.1.3-.1.5-.2.8-.6 2.8-1.1 7.2-4.1 8.5-2.9 1.2-5.6-.2-6-3.5-.3-2.3.2-4.6.4-6.9 2.1-.9 3.8-2.5 5.2-4.4 1.1 2.4 2.3 4.9 4.7 5.5z" fill="#fff" stroke="#1d1d1b" stroke-width="1.5" stroke-linecap="round" stroke-linejoin="round" stroke-miterlimit="10"/><path class="st3" d="M124.3 44l2.5 3.1m.5-3.1l-3.6 3m-5.5-1.5h3.7m-21.3 27l-7.5 3.1m15.3-3.3l5.9 3.4m-7.1-11.5c-.9.5-1.9.6-2.8 0-.2-.1-.1-.2-.2-.3"/><path class="st6" d="M123.1 87.4h-10.8c-4.4 0-4.9-5.2-.5-5.7 1.1-.1 2.2 0 3.3 0h8.6c1.5 0 3 1.3 2.9 2.9 0 1.7-1.9 2.8-3.5 2.8z"/><path class="st6" d="M121.2 87c.5 1.5 1 3.2 1.5 4.6-1.3-1.3-2.6-2.7-3.8-4.1"/><path class="st3" d="M112.6 84.5h10.1"/><path d="M149.1 37h-69c-1.1 0-2 .8-2.3 1.8L64.8 95H11.6c-1.2 0-2.3 1-2.3 2.3 0 1.2 1 2.3 2.3 2.3h127l12.7-59.9c.2-1.5-.8-2.7-2.2-2.7zm-13.6 58H68.8l12.6-53.8H147L135.5 95z" fill="#d6d7d8" stroke="#d6d7d8" stroke-width="1.5" stroke-linecap="round" stroke-linejoin="round" stroke-miterlimit="10"/><path class="st3" d="M13 95l126.6-.6M51 97.2h5"/><circle class="st0" cx="59.4" cy="97.2" r=".8"/><circle class="st0" cx="62.4" cy="97.2" r=".8"/><circle class="st0" cx="114" cy="39.1" r="1.3"/></symbol><symbol id="pig" viewBox="0 0 191 144"><path d="M35.216 74.285c5.73-.477 10.266-3.82 14.205-7.76 3.104-3.103 5.611-6.684 8.954-9.55 4.178-3.82 9.072-6.923 14.325-8.953 6.565-2.506 14.802-2.745 21.726-1.91 17.19 1.91 32.47 12.535 35.932 30.202 1.432 7.64.477 15.758-3.104 22.801-4.417 8.714-12.534 13.37-21.488 16.474-12.415 4.178-25.904 2.745-37.96-2.03-11.938-4.775-20.891-14.325-32.59-20.055V74.285z" fill="#D6D7D8"/><path d="M75.803 54.588c-1.552-5.491-6.088-16.474-12.415-17.31.597 6.686.955 12.893 1.313 19.34" fill="#D6D7D8"/><path d="M75.803 54.588c-1.552-5.491-6.088-16.474-12.415-17.31.597 6.686.955 12.893 1.313 19.34" stroke="#1D1D1B" stroke-width="1.791" stroke-miterlimit="10" stroke-linecap="round" stroke-linejoin="round"/><path d="M52.763 69.987c.597-.119 1.194.12 1.552.836.597 1.075.358 3.462-.358 4.536-.955 1.433-2.387 1.433-2.865-.358-.358-1.194-.239-2.865.358-3.94.358-.596.836-.954 1.313-1.074z" fill="#1D1D1B"/><path d="M137.521 90.998c-.836-.12-1.671-.478-2.149-1.194-1.193-1.552-.835-3.82-.835-5.61v-5.492c0-2.03-.358-4.417 2.029-5.253 1.074-.477 2.507-.238 3.462.359 1.552 1.074 1.194 4.416 1.194 5.968v5.492c.119 2.387-.478 5.968-3.701 5.73z" fill="#D6D7D8"/><path d="M111.258 62.109c4.179-2.507 10.864 6.088 8.834 9.788-1.313 2.507-4.297 1.075-5.849-.358-.955-.835-1.791-1.67-2.507-2.626-1.552-1.79-3.343-5.133-.478-6.804z" fill="#fff"/><path d="M139.907 35.25h.239c-2.029-.597-3.462-1.194-4.417-3.224-.836-1.671-1.194-3.104-1.432-5.014-.717 3.701-3.701 6.924-7.282 7.999 3.103 1.67 5.013 5.133 4.894 8.595.716-2.03 1.433-3.582 2.865-5.014 1.194-1.313 3.223-3.104 5.133-3.343z" stroke="#1D1D1B" stroke-width="1.791" stroke-miterlimit="10" stroke-linecap="round" stroke-linejoin="round"/><path d="M63.746 111.172c.955 4.656 1.552 10.505 3.581 14.802.478.955 1.433 1.91 2.507 1.91.836 0 1.671-.477 2.268-1.193.597-.717.955-1.433 1.313-2.269 1.433-3.581 2.627-7.281 3.701-10.863m25.189 3.701c1.074 1.91 2.029 3.939 3.223 5.73.597.836 1.194 1.552 1.79 2.388.955 1.313 2.627 3.223 4.417 2.387 1.433-.716 1.791-2.746 2.149-4.178.358-1.671.478-3.462.597-5.133.119-2.149.119-4.298.358-6.446" fill="#D6D7D8"/><path d="M40.349 128.481h99.081M76.4 116.066c-2.985-.716-5.85-1.671-8.595-2.745-1.552-.597-2.985-1.313-4.417-2.03m51.451.12a56.23 56.23 0 01-9.073 3.939 54.568 54.568 0 01-4.178 1.194" stroke="#1D1D1B" stroke-width="1.791" stroke-miterlimit="10" stroke-linecap="round" stroke-linejoin="round"/><path d="M104.573 48.858a46.859 46.859 0 00-10.028-2.149c-4.655-.477-9.788-.597-14.683.12v3.342c8.237-1.074 16.593 0 24.592 2.388l.119-3.7zm-68.76 25.905c1.432 2.864 1.91 6.088 1.91 9.191-.12 2.985-.359 6.208-1.791 8.834l-.12-18.025z" fill="#1D1D1B" stroke="#1D1D1B" stroke-width="1.791" stroke-miterlimit="10" stroke-linecap="round" stroke-linejoin="round"/><path d="M143.966 86.58c-.358 0-.836-.238-1.074-.596-.597-.836-.478-1.91-.478-2.865v-2.746c0-.955-.119-2.149.955-2.626.597-.239 1.194-.12 1.671.239.717.477.597 2.148.597 2.984v2.746c.239 1.193 0 2.984-1.671 2.865z" fill="#D6D7D8"/><path d="M153.994 15.075l-11.937 11.938m22.68 4.775l-17.906 2.387M163.544 48.5l-17.906-5.969" stroke="#43A7F5" stroke-width="1.791" stroke-miterlimit="10" stroke-linecap="round" stroke-linejoin="round"/></symbol><symbol id="plane" viewBox="0 0 160 120"><style>.st0{fill:#fff;stroke:#1d1d1b}.st0,.st2,.st3{stroke-width:1.5;stroke-linecap:round;stroke-linejoin:round;stroke-miterlimit:10}.st2{fill:#43a7f5;stroke:#43a7f5}.st3{fill:none;stroke:#1d1d1b}</style><path class="st0" d="M46 55.3l90.5 7.5-67.7 25.6z"/><path class="st0" d="M54.9 68.2l11.2 16.3-12.3 3.8"/><path d="M57.4 71.9l-3.6 16.4 1.1-20.1m2.5 3.7l79.1-9.1-81.6 5.4" fill="#1d1d1b" stroke="#1d1d1b" stroke-width="1.5" stroke-linecap="round" stroke-linejoin="round" stroke-miterlimit="10"/><path class="st2" d="M94.2 68c-.2.4-.5.8-.9 1-1.3.7-3 .4-4.4.4h-6c-1.2 0-2.1-1.1-1.8-2.3l4.4-17.4c-6.5-6.3-21.5-18.3-12-28 2.8-2.9 7.9-4.3 11.8-2.8 4.2 1.6 6.9 5 9.1 8.7 2.9-3.8 6.3-7.1 11.3-7.7 4.2-.4 8.5 1.8 9.9 6 1.6 4.7-1.6 10.3-5.1 13.3-5 4.3-11.1 8.1-16.5 11.9l-3 11.3c1.3 0 2.1.1 3.2.2s2.3.5 2.9 1.5c.6.9.6 2 0 2.9-.6.8-1.9 1-2.9 1"/><path class="st2" d="M105.4 42.8c5-1.1 11.6-3 13.8-8.1.9-2 .7-4.9-1.2-6.2-1.8-1.2-4-1.3-6.1-1.5-2.4-.2-4.8-.2-7.1.1-1.4.2-3.2 2.2-2.2 3.6 1 1.5 3.1 1.6 4.7 1.8 2.6.3 5.2.3 7.8.2"/><path class="st3" d="M116.3 26.8c-2.5-.4-5.1-.6-7.6-.5-1.4.1-2.9.2-4.1.8-1.3.6-2.3 2.3-1.6 3.8.7 1.5 3.1 1.5 4.5 1.6 2.6.3 7.8.4 7.8.4-1.1 2.7-2.6 4.6-4.6 6.3-1.3 1.2-2.8 2.3-4.2 3.4"/><path d="M92.3 32.3c2.4 1.1-.7 4.9-2.1 2.9-.9-1.2.6-3.6 2.1-2.9zm9.1.6c2.4 1.1-.7 4.9-2.1 2.9-.8-1.2.6-3.6 2.1-2.9z" fill="#1d1d1b"/><path class="st3" d="M95 35.7c1.2 1.1 2.4 2.3 3.5 3.4-1.5.8-3 1.5-4.6 2.1m42.6-18.1c.1 0 .2 0 .2-.1-1.4-.2-2.9-1.3-3.4-2.7-.4-1.2-.5-2.4-.3-3.7-1.1 2.6-4.2 4.9-7.1 5.1 1.2.6 2.2 1.6 2.8 2.8.8 1.4.8 2.6.8 4.2 1.8-2.6 3.8-4.8 7-5.6z"/><path d="M82.2 101.8c2.6-3.6 6.9-6.4 11.4-6.9 3.5-.4 5.9 1.1 7.4 4.2 2.2-4.5 4.1-8.7 8.1-11.9 2.8-2.3 6.8-3.8 10.5-3 4.6 1 6.4 5.2 6.7 9.5.1 1.9 0 5.9-2.1 6.9-1.5.7-2.9-.4-3.2-1.9-.3-1.7.6-3.7 1.4-5.2 1.4-2.3 3.6-4.4 6-5.6 2.5-1.1 5.3-1.7 8-1.2 6.8 1.3 8 10.4 4.8 15.6" fill="none" stroke="#d6d7d8" stroke-width="3" stroke-linecap="round" stroke-linejoin="round" stroke-miterlimit="10"/><path class="st3" d="M11.7 83.1c6.4 1.8 13.2 2 19.6-.1 4-1.4 12.1-5.8 9.9-11.5-1.6-4.4-6.6-2.2-9.2 0-2.7 2.4-3.7 6.8-3.3 10.3 1.3 9.7 13.4 7.3 20 6.4m36.6-37.9L81 67.2c-.3 1.2.6 2.3 1.8 2.3h6c1.2 0 2.4.2 3.6-.1.6-.1 1.1-.4 1.6-.7 1.6-1.4.4-3.7-1.3-4-1.4-.3-3.3-.4-4.8-.5l2.9-12.5"/></symbol><symbol id="present" viewBox="0 0 344 258"><path d="M293.089 181.115c-3.44-1.376-6.708-3.096-9.976-4.816-5.676-3.096-10.32-5.676-13.416-11.352-3.268-5.848-7.052-9.632-12.728-13.416-4.988-3.268-10.32-6.192-13.932-11.18" stroke="#1D1D1B" stroke-width="2.952" stroke-miterlimit="10" stroke-linecap="round" stroke-linejoin="round"/><path d="M312.008 252.841c-12.556-7.912-29.928-24.08-41.796-33.024 8.428-14.792 17.2-29.24 25.972-43.688 13.416 6.536 30.616 14.792 44.032 21.328l-9.632 17.028 4.644 2.58-23.22 35.776z" fill="#D6D7D8" stroke="#D6D7D8" stroke-width="2.952" stroke-miterlimit="10" stroke-linecap="round" stroke-linejoin="round"/><path d="M175.955 88.58c-13.932-5.849-27.176-12.385-40.076-20.297-7.396-4.472-14.276-11.008-16.168-19.952-1.72-8.256 2.408-15.996 10.32-18.92 12.556-4.644 21.672 6.88 27.004 16.512 7.396 13.416 11.868 27.864 18.06 41.796" stroke="#43A7F5" stroke-width="4.92" stroke-miterlimit="10" stroke-linecap="round" stroke-linejoin="round"/><path d="M174.924 88.237c5.16-13.76 11.696-31.304 21.672-42.484 6.536-7.224 20.468-15.136 28.724-5.504 7.224 8.428 1.204 19.436-5.676 25.8-3.612 3.268-7.74 5.848-11.868 8.428-9.632 5.676-19.608 11.008-30.1 14.62" stroke="#43A7F5" stroke-width="4.92" stroke-miterlimit="10" stroke-linecap="round" stroke-linejoin="round"/><path d="M280.534 71.38V59.34m0 37.667V84.28m6.532-6.192h12.384m-37.833 0h12.9" stroke="#1D1D1B" stroke-width="2.952" stroke-miterlimit="10" stroke-linecap="round" stroke-linejoin="round"/><path d="M93.733 54.18c-.172.345-.516.689-1.032 1.033-2.236.86-3.956-1.548-2.064-3.268 2.064-1.72 3.956.688 3.096 2.236z" fill="#1D1D1B" stroke="#1D1D1B" stroke-width="2.952" stroke-miterlimit="10" stroke-linecap="round" stroke-linejoin="round"/><path d="M335.058 217.065c-11.696-6.88-49.02-25.284-54.524-29.24-4.816-3.268-9.804-5.676-13.76-10.32-2.924-3.612-4.816-8.084-8.256-11.18-3.268-2.924-6.88-5.16-10.492-7.396-4.472-2.924-9.116-5.848-13.588-8.944-1.548-1.032-4.128-3.096-5.676-1.376-3.268 3.44.172 7.568 2.924 9.976 4.3 3.784 9.46 6.536 12.9 11.008m-137.086-.688c5.504-3.44 11.352-6.364 16.684-10.148 2.236-1.548 7.224-7.052 4.128-9.804-.688-.516-1.548-.516-2.408-.516-1.204.172-1.72.344-2.752.86-7.912 4.644-15.996 8.944-24.424 12.384-6.192 2.58-9.46 8.084-13.588 13.072-4.472 5.504-11.696 9.632-17.716 12.9m-2.751-13.417c4.816-2.236 10.148-4.473 14.104-7.913 4.472-3.956 7.396-9.975 12.04-13.587 4.988-3.784 14.792-6.708 20.812-8.772" stroke="#1D1D1B" stroke-width="2.952" stroke-miterlimit="10" stroke-linecap="round" stroke-linejoin="round"/><path d="M61.061 175.267l21.5 52.288M31.822 254.56l50.74-27.004M20.98 234.78l53.493-27.004m-64.151-10.493l50.74-22.016m2.578 62.436l-22.703-52.288m-21.674 7.913l24.252 55.04" stroke="#43A7F5" stroke-width="2.952" stroke-miterlimit="10" stroke-linecap="round" stroke-linejoin="round"/><path d="M70.002 220.332c-5.332-1.376-6.708 8.6-.86 7.74 3.956-.516 4.988-6.88.86-7.74zM194.356 89.784h55.212v31.132H104.744V89.784h55.9m-44.54 62.263l.344-31.132" stroke="#1D1D1B" stroke-width="2.952" stroke-miterlimit="10" stroke-linecap="round" stroke-linejoin="round"/><path d="M183.528 202.615L176.82 87.891l-3.44 115.068 10.148-.344z" fill="#43A7F5" stroke="#43A7F5" stroke-width="2.952" stroke-miterlimit="10" stroke-linecap="round" stroke-linejoin="round"/><path d="M267.458 33.197h.344c-3.612-1.204-6.02-2.064-7.74-5.676-1.548-2.924-2.236-5.504-2.408-8.772-1.204 6.536-6.364 12.212-12.9 13.932a16.839 16.839 0 018.6 15.136c1.376-3.44 2.408-6.192 5.16-8.944 2.064-2.064 5.848-5.16 8.944-5.676zM71.898 78.088c-2.752-.172-5.504-1.548-7.224-3.784-1.72-2.236-2.752-5.676-2.58-8.428-1.032 5.848-4.472 11.18-9.46 14.62 2.58.172 4.816 1.892 6.536 3.956 1.72 2.064 2.58 4.472 3.612 7.052 2.064-4.472 5.676-9.804 9.116-13.416zm62.258 126.42h89.956M107.327 169.42c8.084-1.032 16.168-3.268 23.564-6.536 3.956-1.72 7.568-4.128 11.18-6.536 3.096-2.064 7.052-5.504 10.836-5.676 1.376 0 3.268 1.204 3.268 2.752 0 1.72-2.408 3.784-3.44 4.816-9.116 8.6-20.64 13.932-31.476 20.124" stroke="#1D1D1B" stroke-width="2.952" stroke-miterlimit="10" stroke-linecap="round" stroke-linejoin="round"/><path d="M156.178 154.799a11.531 11.531 0 013.44 0c1.204.172 2.236 1.032 2.58 2.064.86 2.236-2.752 5.332-4.128 6.708-8.772 8.944-20.124 16.34-31.648 21.156m35.602-15.823c-8.084 10.492-20.984 17.372-33.024 21.844m23.561-5.676c-5.332 4.644-11.524 9.116-18.232 11.868-4.3 1.72-8.772 3.44-13.416 4.472-13.932 2.752-31.132 6.364-43.344 14.276m167.014-45.75c-7.568-4.128-14.964-8.6-21.672-13.932-3.44-2.58-6.536-5.504-9.632-8.6-1.892-1.892-5.848-4.472-8.772-3.268-3.612 1.376.172 6.192 1.548 7.74 7.396 8.084 16.168 14.792 25.112 21.156" stroke="#1D1D1B" stroke-width="2.952" stroke-miterlimit="10" stroke-linecap="round" stroke-linejoin="round"/><path d="M227.728 170.451c-5.848-3.612-11.524-7.74-17.028-11.868-3.784-2.924-7.396-6.364-11.868-7.912-3.096-1.032-7.052 1.376-4.988 4.644 1.032 1.72 2.58 2.924 3.956 4.3 3.096 2.924 6.708 4.988 9.976 7.568 5.848 4.3 11.868 8.428 18.232 11.868m-2.579 6.708c-7.224-2.064-14.62-5.16-20.984-9.288-2.58-1.72-5.332-3.268-7.74-5.16-1.72-1.376-3.612-2.236-4.472-4.3-.86-2.064.172-3.956 2.58-4.3 2.064-.344 4.3 1.032 6.02 2.236 7.568 5.16 19.092 10.664 27.348 14.276m45.235 34.917c-6.192-4.472-11.696-7.912-19.092-10.148-9.116-2.752-18.232-4.988-27.348-7.74-6.364-1.892-13.072-2.924-19.608-4.644-2.924-.688-9.116-2.408-9.976-5.676-1.376-4.816 6.192-2.58 8.428-1.892 6.536 1.892 12.9 2.236 19.78 2.408M13.934 213.624l53.492-25.972m207.596 22.36c3.268 2.408 6.364 4.644 9.632 7.052m-3.947-16.169l11.352 6.708m-1.9-22.874c3.096 1.204 6.02 2.58 9.116 3.784m-61.914-66.393v29.239" stroke="#1D1D1B" stroke-width="2.952" stroke-miterlimit="10" stroke-linecap="round" stroke-linejoin="round"/><path d="M296.699 135.02c-.172.344-.516.688-1.032 1.032-2.236.86-3.956-1.548-2.064-3.268 2.064-1.72 3.956.688 3.096 2.236z" fill="#1D1D1B" stroke="#1D1D1B" stroke-width="2.952" stroke-miterlimit="10" stroke-linecap="round" stroke-linejoin="round"/></symbol><symbol id="vk" viewBox="0 0 34 34"><path d="M17 1c8.837 0 16 7.164 16 16 0 8.837-7.163 16-16 16S1 25.837 1 17C1 8.164 8.163 1 17 1z" stroke="#4A4A4A" fill="none"/><path d="M15.264 23.805h1.185s.356-.043.54-.254c.169-.196.164-.56.164-.56s-.025-1.715.713-1.968c.727-.25 1.659 1.656 2.65 2.388.747.555 1.316.435 1.316.435l2.645-.04s1.383-.094.727-1.266c-.053-.096-.38-.868-1.966-2.454-1.66-1.661-1.44-1.393.56-4.265 1.217-1.75 1.704-2.817 1.55-3.274-.144-.435-1.04-.32-1.04-.32l-2.978.02s-.222-.034-.384.072c-.16.103-.263.344-.263.344s-.47 1.353-1.102 2.505c-1.325 2.43-1.857 2.557-2.073 2.407-.504-.353-.377-1.413-.377-2.166 0-2.354.33-3.336-.644-3.59-.326-.083-.563-.14-1.392-.15-1.064-.013-1.962.005-2.47.273-.34.18-.601.579-.443.6.198.028.644.13.88.478.306.447.296 1.453.296 1.453s.174 2.77-.408 3.115c-.404.236-.954-.246-2.137-2.45-.607-1.128-1.062-2.376-1.062-2.376s-.09-.232-.248-.358a1.2 1.2 0 00-.456-.2l-2.831.023s-.424.013-.58.214c-.138.175-.012.54-.012.54s2.216 5.592 4.727 8.41c2.3 2.585 4.913 2.415 4.913 2.415v-.001 0z" fill="none" stroke="#4A4A4A"/></symbol></svg>