<svg width="92" height="2" viewBox="0 0 92 2" fill="none" xmlns="http://www.w3.org/2000/svg">
<g opacity="0.5">
<circle cx="1" cy="1" r="1" transform="rotate(-90 1 1)" fill="black"/>
<circle cx="43" cy="1" r="1" transform="rotate(-90 43 1)" fill="black"/>
<circle cx="7" cy="1" r="1" transform="rotate(-90 7 1)" fill="black"/>
<circle cx="49" cy="1" r="1" transform="rotate(-90 49 1)" fill="black"/>
<circle cx="13" cy="1" r="1" transform="rotate(-90 13 1)" fill="black"/>
<circle cx="55" cy="1" r="1" transform="rotate(-90 55 1)" fill="black"/>
<circle cx="19" cy="1" r="1" transform="rotate(-90 19 1)" fill="black"/>
<circle cx="61" cy="1" r="1" transform="rotate(-90 61 1)" fill="black"/>
<circle cx="25" cy="1" r="1" transform="rotate(-90 25 1)" fill="black"/>
<circle cx="67" cy="1" r="1" transform="rotate(-90 67 1)" fill="black"/>
<circle cx="85" cy="1" r="1" transform="rotate(-90 85 1)" fill="black"/>
<circle cx="31" cy="1" r="1" transform="rotate(-90 31 1)" fill="black"/>
<circle cx="73" cy="1" r="1" transform="rotate(-90 73 1)" fill="black"/>
<circle cx="91" cy="1" r="1" transform="rotate(-90 91 1)" fill="black"/>
<circle cx="37" cy="1" r="1" transform="rotate(-90 37 1)" fill="black"/>
<circle cx="79" cy="1" r="1" transform="rotate(-90 79 1)" fill="black"/>
</g>
</svg>
